<?xml version="1.0" standalone="no"?>
<!DOCTYPE svg PUBLIC "-//W3C//DTD SVG 20010904//EN"
 "http://www.w3.org/TR/2001/REC-SVG-20010904/DTD/svg10.dtd">
<svg version="1.0" xmlns="http://www.w3.org/2000/svg"
 width="512.000000pt" height="512.000000pt" viewBox="0 0 512.000000 512.000000"
 preserveAspectRatio="xMidYMid meet">
<metadata>
Created by potrace 1.11, written by Peter Selinger 2001-2013
</metadata>
<g transform="translate(0.000000,512.000000) scale(0.100000,-0.100000)"
fill="#000000" stroke="none">
<path d="M429 5007 c-31 -16 -51 -36 -66 -67 l-23 -44 0 -2336 0 -2336 22 -44
c17 -33 35 -51 68 -67 l44 -23 2096 0 c2005 0 2097 1 2135 19 51 23 101 79
114 128 15 53 15 4593 0 4646 -13 49 -63 105 -114 128 -38 18 -130 19 -2136
19 l-2096 0 -44 -23z m1181 -543 c0 -64 3 -114 8 -112 82 43 108 50 151 44 54
-7 88 -30 115 -76 17 -29 21 -58 24 -207 l5 -173 -72 0 -71 0 0 164 c0 159 -1
165 -22 180 -31 22 -80 20 -112 -5 l-26 -20 0 -160 0 -159 -65 0 -65 0 0 320
0 320 65 0 65 0 0 -116z m1454 85 c15 -12 26 -30 26 -44 0 -28 -43 -65 -77
-65 -27 0 -73 41 -73 65 0 24 46 65 73 65 13 0 36 -9 51 -21z m-1784 -30 c88
-40 125 -99 118 -190 -8 -117 -83 -168 -259 -177 l-109 -5 0 -103 0 -104 -65
0 -65 0 0 300 0 300 168 0 c146 0 173 -3 212 -21z m1499 -149 c44 -22 66 -49
76 -92 l7 -28 -66 0 c-37 0 -66 4 -66 10 0 22 -41 50 -73 50 -44 0 -70 -20
-65 -51 3 -25 15 -31 141 -64 79 -21 117 -58 124 -116 5 -41 2 -50 -27 -82
-98 -113 -346 -73 -385 61 -6 21 -4 22 59 22 51 0 66 -3 66 -14 0 -23 41 -46
83 -46 48 0 77 15 77 40 0 25 -33 46 -92 59 -122 28 -178 72 -178 141 0 53 45
105 109 125 60 19 157 12 210 -15z m673 0 c34 -25 38 -25 38 0 0 18 7 20 60
20 l60 0 0 -310 0 -310 -65 0 -65 0 0 100 c0 55 -1 100 -3 100 -1 0 -20 -9
-42 -20 -98 -50 -216 5 -254 119 -16 48 -14 149 4 203 29 83 108 133 195 123
25 -3 57 -14 72 -25z m1064 15 c85 -25 133 -94 137 -197 l2 -63 -152 -3 c-157
-3 -163 -5 -143 -43 27 -49 119 -63 184 -28 l39 21 30 -31 c26 -26 29 -32 17
-46 -50 -61 -214 -82 -296 -38 -87 47 -131 130 -121 229 10 96 70 174 154 201
52 16 91 16 149 -2z m-2375 -132 l46 -138 45 135 45 135 68 3 c67 3 67 3 61
-21 -12 -49 -194 -517 -210 -542 -28 -42 -75 -65 -133 -65 l-53 0 0 50 0 50
34 0 c39 0 76 37 76 74 0 11 -36 115 -80 231 -44 115 -80 213 -80 217 0 5 30
8 68 8 l68 0 45 -137z m939 -88 l0 -225 -65 0 -65 0 0 225 0 225 65 0 65 0 0
-225z m760 63 c0 -136 3 -164 17 -180 27 -30 111 -20 135 16 4 6 8 82 8 169
l0 157 65 0 65 0 0 -225 0 -225 -59 0 c-51 0 -61 3 -66 20 -6 19 -7 19 -36 -3
-43 -31 -154 -32 -196 -1 -56 41 -63 71 -63 262 l0 172 65 0 65 0 0 -162z
m-1760 -823 c0 -63 3 -115 6 -115 4 0 22 9 40 21 39 24 128 28 170 7 67 -33
83 -88 84 -290 l0 -148 -65 0 -65 0 -1 138 c-2 171 -6 193 -43 211 -35 17
-100 1 -116 -29 -5 -10 -10 -86 -10 -169 l0 -151 -65 0 -65 0 0 313 c0 173 3
317 7 320 3 4 33 7 65 7 l58 0 0 -115z m522 78 c40 -36 6 -103 -52 -103 -41 0
-84 42 -75 73 4 12 14 28 23 35 23 17 82 15 104 -5z m1057 -15 c14 -25 14 -29
-5 -55 -40 -54 -134 -34 -134 29 0 39 29 59 79 56 37 -2 48 -8 60 -30z m-1946
8 c25 -7 59 -23 76 -35 33 -24 75 -89 85 -133 l6 -28 -68 0 c-69 0 -69 0 -78
31 -13 47 -56 74 -113 74 -102 0 -133 -42 -139 -190 -6 -167 28 -220 138 -220
67 1 104 25 115 76 6 29 8 29 76 29 l69 0 -6 -27 c-27 -117 -123 -183 -264
-183 -112 0 -199 53 -244 149 -18 39 -21 65 -21 161 1 99 4 122 23 161 60 121
203 178 345 135z m1372 -170 c14 -9 25 -21 25 -27 0 -5 15 1 33 16 59 44 163
50 222 11 47 -31 55 -69 55 -256 l0 -170 -65 0 -65 0 0 158 c0 183 -5 197 -68
197 -26 0 -48 -7 -61 -19 -20 -18 -21 -30 -21 -178 l0 -158 -64 0 -64 0 -4
160 c-4 183 -9 195 -78 194 -75 -2 -80 -14 -80 -196 l0 -158 -65 0 -65 0 0
225 0 225 60 0 c55 0 60 -2 66 -25 l6 -24 28 21 c52 38 149 40 205 4z m-475
-201 l0 -225 -65 0 -65 0 0 225 0 225 65 0 65 0 0 -225z m1050 0 l0 -225 -65
0 -65 0 0 225 0 225 65 0 65 0 0 -225z m428 204 c66 -32 96 -85 100 -176 l4
-73 -155 0 c-151 0 -155 -1 -150 -20 3 -11 19 -31 35 -45 39 -33 117 -35 167
-4 l34 21 30 -31 c30 -29 30 -31 13 -50 -9 -10 -41 -29 -69 -41 -42 -18 -64
-22 -123 -18 -133 9 -212 79 -221 199 -13 159 74 258 226 259 46 0 78 -6 109
-21z m-1727 -819 c98 -30 224 -109 353 -222 l40 -35 100 79 c269 209 488 241
593 85 67 -100 70 -278 7 -491 -17 -60 -17 -56 -1 -56 28 0 207 -64 286 -103
93 -45 189 -126 216 -183 21 -44 21 -109 2 -157 -25 -59 -102 -124 -212 -177
-88 -43 -253 -100 -291 -100 -22 0 -23 -12 -3 -100 67 -302 6 -504 -163 -539
-126 -27 -290 44 -485 208 l-72 61 -80 -65 c-160 -128 -304 -195 -422 -195
-102 0 -160 36 -207 125 -22 42 -27 66 -30 156 -4 106 13 234 44 321 l13 38
-42 10 c-289 73 -497 223 -497 360 0 137 203 280 496 349 l51 12 -20 77 c-14
57 -20 114 -21 222 -1 132 1 150 22 196 58 128 171 172 323 124z"/>
<path d="M1032 4348 l3 -93 82 0 c106 1 137 19 141 87 3 40 -1 48 -28 72 -29
24 -39 26 -116 26 l-85 0 3 -92z"/>
<path d="M3352 4290 c-66 -27 -69 -214 -4 -249 32 -17 77 -13 106 10 25 19 26
25 26 114 0 89 -1 95 -26 114 -28 22 -64 26 -102 11z"/>
<path d="M4379 4271 c-51 -51 -42 -61 61 -61 50 0 90 2 90 4 0 1 -5 17 -10 33
-21 58 -94 70 -141 24z"/>
<path d="M3944 3230 c-24 -10 -54 -47 -54 -67 0 -10 23 -13 85 -13 83 0 85 1
85 23 0 45 -68 78 -116 57z"/>
<path d="M2190 2439 c-77 -32 -114 -115 -114 -254 0 -83 26 -256 43 -283 5 -9
53 -6 185 10 l177 22 46 55 c26 31 77 88 116 127 l69 71 -67 57 c-146 124
-273 193 -370 201 -33 3 -71 0 -85 -6z"/>
<path d="M3201 2429 c-89 -18 -201 -80 -334 -186 l-68 -54 46 -52 c25 -29 75
-89 111 -133 l66 -81 66 -7 c65 -6 224 -32 268 -42 19 -5 24 3 45 88 19 74 24
119 24 218 0 115 -2 129 -25 169 -40 72 -108 99 -199 80z"/>
<path d="M2661 2043 c-50 -53 -91 -99 -91 -102 0 -3 81 -7 180 -7 132 -1 178
1 173 10 -9 15 -164 196 -168 196 -2 0 -44 -44 -94 -97z"/>
<path d="M2562 1872 c-52 -7 -53 -7 -111 -88 -31 -45 -84 -126 -116 -180 l-59
-98 45 -84 c24 -47 74 -131 111 -188 l68 -103 52 -6 c29 -3 136 -5 238 -3
l184 3 62 87 c34 48 87 130 119 183 l57 95 -46 84 c-25 46 -77 132 -116 190
l-70 106 -48 0 c-27 0 -109 2 -183 4 -74 2 -158 1 -187 -2z m272 -239 c98 -69
115 -194 38 -277 -125 -133 -362 -53 -362 123 0 79 42 140 120 176 55 25 152
14 204 -22z"/>
<path d="M2240 1843 c-52 -8 -96 -15 -97 -17 -4 -4 37 -113 71 -190 l26 -59
76 119 c42 66 82 126 90 135 8 8 14 19 14 22 0 11 -75 7 -180 -10z"/>
<path d="M3070 1856 c0 -3 22 -37 48 -78 27 -40 65 -103 86 -140 21 -38 40
-68 42 -68 14 0 109 224 100 238 -3 5 -56 17 -118 26 -62 9 -123 19 -135 22
-13 2 -23 2 -23 0z"/>
<path d="M1940 1777 c-178 -56 -306 -132 -345 -208 -32 -60 -9 -131 63 -194
44 -40 190 -111 295 -144 53 -17 101 -31 106 -31 4 0 16 21 26 48 10 26 40 94
66 151 l49 104 -49 116 c-27 64 -54 133 -61 154 -7 24 -18 37 -28 37 -9 -1
-64 -16 -122 -33z"/>
<path d="M3410 1768 c-5 -13 -34 -79 -65 -148 -30 -68 -55 -130 -55 -137 0 -8
11 -35 24 -61 13 -26 40 -90 61 -142 20 -52 38 -96 39 -97 1 -2 36 6 77 18
280 76 436 191 415 305 -10 50 -95 135 -182 181 -62 33 -258 103 -288 103 -9
0 -21 -10 -26 -22z"/>
<path d="M2195 1338 c-21 -46 -43 -99 -51 -120 l-12 -36 86 -16 c115 -20 192
-30 192 -23 0 3 -26 47 -59 98 -32 52 -69 113 -82 136 -13 24 -27 43 -30 43
-3 0 -23 -37 -44 -82z"/>
<path d="M3208 1358 c-21 -35 -62 -99 -92 -143 -39 -56 -51 -81 -41 -83 23 -5
249 28 259 39 6 5 -8 54 -39 129 -26 66 -49 120 -49 120 -1 0 -18 -28 -38 -62z"/>
<path d="M2095 1068 c-69 -229 -51 -422 45 -486 52 -35 149 -28 250 20 76 36
229 139 270 183 l23 24 -67 77 c-37 42 -85 101 -108 130 -22 30 -44 54 -47 54
-18 0 -232 30 -280 40 -29 5 -57 10 -62 10 -5 0 -15 -24 -24 -52z"/>
<path d="M3276 1094 c-43 -7 -121 -17 -174 -22 l-95 -10 -36 -43 c-20 -24 -71
-82 -114 -129 l-78 -85 53 -48 c126 -113 287 -203 373 -207 77 -5 95 0 135 36
58 52 74 115 67 259 -4 99 -30 241 -46 256 -3 3 -41 0 -85 -7z"/>
<path d="M2567 1046 c18 -32 156 -186 167 -186 10 0 86 80 163 170 l25 30
-182 0 c-153 0 -180 -2 -173 -14z"/>
</g>
</svg>
